<svg width="24" height="25" viewBox="0 0 24 25" fill="none" xmlns="http://www.w3.org/2000/svg"><path d="M6.981 5c.692 0 1.33.053 1.917.21a4.237 4.237 0 0 1 1.494.587c.429.264.745.639.962 1.12.21.48.324 1.067.324 1.706 0 .744-.16 1.383-.535 1.863-.322.48-.849.909-1.495 1.225.909.264 1.6.744 2.022 1.383.421.639.691 1.436.691 2.345 0 .744-.157 1.383-.427 1.916-.27.538-.673.996-1.173 1.331a5.442 5.442 0 0 1-1.705.744 7.992 7.992 0 0 1-1.917.264L0 19.704V5h6.981Zm-.428 5.967c.585 0 1.066-.158 1.436-.428.369-.27.532-.745.532-1.33 0-.324-.052-.639-.157-.85a1.471 1.471 0 0 0-.48-.533 2.76 2.76 0 0 0-.692-.264c-.264-.053-.534-.053-.85-.053H3.255v3.466c0-.008 3.298-.008 3.298-.008Zm.158 6.29c.322 0 .639-.053.909-.106.264-.052.534-.159.744-.323a2.04 2.04 0 0 0 .534-.585 2.57 2.57 0 0 0 .21-.962c0-.744-.21-1.278-.639-1.653-.428-.322-1.014-.48-1.705-.48h-3.51v4.101h3.458l-.002.008Zm10.287-.053c.429.427 1.066.639 1.917.639.585 0 1.119-.159 1.548-.429.427-.323.69-.639.795-.96h2.61c-.429 1.276-1.068 2.186-1.917 2.772-.849.533-1.864.849-3.09.849a6.202 6.202 0 0 1-2.29-.427 4.24 4.24 0 0 1-1.706-1.174 4.277 4.277 0 0 1-1.068-1.758c-.263-.691-.375-1.435-.375-2.292 0-.796.105-1.547.375-2.239a5.8 5.8 0 0 1 1.12-1.81c.48-.48 1.067-.91 1.706-1.174a6.027 6.027 0 0 1 2.24-.427c.909 0 1.705.158 2.396.533.69.374 1.226.797 1.654 1.436.427.585.744 1.277.961 2.022.105.744.158 1.494.105 2.345h-7.725c0 .87.315 1.665.744 2.094Zm3.36-5.598c-.375-.375-.963-.586-1.655-.586-.48 0-.848.104-1.171.264-.323.157-.534.374-.744.584a1.435 1.435 0 0 0-.375.746c-.054.262-.105.48-.105.69h4.794c-.105-.789-.373-1.323-.744-1.698Zm-4.69-5.592h5.966v1.435h-5.966V6.014Z" fill="#000"/></svg>