<svg width="25" height="24" viewBox="0 0 25 24" fill="none" xmlns="http://www.w3.org/2000/svg"><path d="m19.852 7.617-3.96-3.563c-1.127-1.015-1.69-1.523-2.383-1.788L13.5 5c0 2.357 0 3.536.732 4.268.732.732 1.911.732 4.268.732h3.58c-.362-.704-1.012-1.288-2.228-2.383Z" fill="#595959"/><path fill-rule="evenodd" clip-rule="evenodd" d="M10.5 22h4c3.771 0 5.657 0 6.828-1.172C22.5 19.657 22.5 17.771 22.5 14v-.437c0-.873 0-1.529-.043-2.063h-4.052c-1.097 0-2.067 0-2.848-.105-.847-.114-1.694-.375-2.385-1.066-.692-.692-.953-1.539-1.067-2.386C12 7.162 12 6.193 12 5.095l.01-2.834c0-.083.007-.164.02-.244C11.621 2 11.136 2 10.53 2 6.739 2 4.843 2 3.672 3.172 2.5 4.343 2.5 6.229 2.5 10v4c0 3.771 0 5.657 1.172 6.828C4.843 22 6.729 22 10.5 22Zm.97-6.53a.75.75 0 0 1 1.06 0l1 1a.75.75 0 0 1 0 1.06l-1 1a.75.75 0 1 1-1.06-1.06l.47-.47-.47-.47a.75.75 0 0 1 0-1.06Zm-.268-1.207a.75.75 0 1 0-1.404-.526l-1.5 4a.75.75 0 1 0 1.404.526l1.5-4ZM8.03 13.47a.75.75 0 0 1 0 1.06l-.47.47.47.47a.75.75 0 1 1-1.06 1.06l-1-1a.75.75 0 0 1 0-1.06l1-1a.75.75 0 0 1 1.06 0Z" fill="#595959"/></svg>