<svg width="25" height="24" viewBox="0 0 25 24" fill="none" xmlns="http://www.w3.org/2000/svg"><path fill-rule="evenodd" clip-rule="evenodd" d="M4.672 3.172C3.5 4.343 3.5 6.229 3.5 10v4c0 3.771 0 5.657 1.172 6.828C5.843 22 7.729 22 11.5 22h2c3.771 0 5.657 0 6.828-1.172C21.5 19.657 21.5 17.771 21.5 14v-4c0-3.771 0-5.657-1.172-6.828C19.157 2 17.271 2 13.5 2h-2C7.729 2 5.843 2 4.672 3.172ZM8.5 9.25a.75.75 0 0 0 0 1.5h8a.75.75 0 1 0 0-1.5h-8Zm0 4a.75.75 0 1 0 0 1.5h5a.75.75 0 1 0 0-1.5h-5Z" fill="#595959"/></svg>