<svg width="142" height="34" viewBox="0 0 142 34" fill="none" xmlns="http://www.w3.org/2000/svg"><path fill-rule="evenodd" clip-rule="evenodd" d="M.661 33.339a.5.5 0 0 1-.433-.75L18.292 1.26a.5.5 0 0 1 .866 0l10.46 18.14a.5.5 0 0 1-.168.673L8.443 33.263a.5.5 0 0 1-.266.076H.66Z" fill="url(#a)"/><path fill-rule="evenodd" clip-rule="evenodd" d="M.5 33.339a.5.5 0 0 1-.432-.75L18.144 1.26a.5.5 0 0 1 .866 0l3.953 6.852a.5.5 0 0 1-.002.503L8.54 33.092a.5.5 0 0 1-.43.247H.5Z" fill="url(#b)"/><mask id="e" fill="#fff"><path fill-rule="evenodd" clip-rule="evenodd" d="M36.608 33.34a.5.5 0 0 0 .433-.75L18.977 1.26a.5.5 0 0 0-.866 0L7.65 19.4a.5.5 0 0 0 .168.673l21.007 13.19a.5.5 0 0 0 .266.076h7.516Z"/></mask><path fill-rule="evenodd" clip-rule="evenodd" d="M36.608 33.34a.5.5 0 0 0 .433-.75L18.977 1.26a.5.5 0 0 0-.866 0L7.65 19.4a.5.5 0 0 0 .168.673l21.007 13.19a.5.5 0 0 0 .266.076h7.516Z" fill="url(#c)"/><path d="m28.826 33.263.266-.424-.266.424ZM7.652 19.4l.433.25-.433-.25Zm.167.673-.266.424.266-.424ZM37.04 32.59l.433-.25-.433.25ZM18.977 1.261l.433-.25-.433.25Zm-.866 0-.434-.25.434.25Zm.433.25 18.064 31.328.866-.5L19.41 1.012l-.866.5ZM8.084 19.65 18.545 1.51l-.867-.5L7.219 19.15l.867.499Zm-.531.847 21.008 13.189.531-.847L8.085 19.65l-.532.848Zm29.055 12.342h-7.516v1h7.516v-1Zm-8.047.847a1 1 0 0 0 .531.153v-1l-.531.847ZM7.218 19.15a1 1 0 0 0 .335 1.347l.532-.847-.867-.5Zm29.39 13.69v1a1 1 0 0 0 .866-1.5l-.866.5ZM19.41 1.01a1 1 0 0 0-1.733 0l.867.5.866-.5Z" fill="url(#d)" mask="url(#e)"/><mask id="h" fill="#fff"><path fill-rule="evenodd" clip-rule="evenodd" d="M36.668 33.512a.5.5 0 0 0 .436-.745L19.074.743a.5.5 0 0 0-.872 0L14.26 7.746a.5.5 0 0 0 .002.495l14.383 25.02a.5.5 0 0 0 .433.251h7.591Z"/></mask><path fill-rule="evenodd" clip-rule="evenodd" d="M36.668 33.512a.5.5 0 0 0 .436-.745L19.074.743a.5.5 0 0 0-.872 0L14.26 7.746a.5.5 0 0 0 .002.495l14.383 25.02a.5.5 0 0 0 .433.251h7.591Z" fill="url(#f)"/><path d="m28.644 33.261-.434.25.434-.25ZM14.259 7.746l.436.246-.436-.246Zm22.845 25.02.436-.245-.436.246ZM19.074.744l-.436.245.436-.245Zm-.872 0-.435-.246.435.246Zm.436.245 18.03 32.024.872-.49L19.51.496l-.872.491Zm-3.943 7.004L18.638.988l-.871-.49L13.823 7.5l.872.49Zm-.867.498L28.21 33.51l.867-.498-14.382-25.02-.867.498Zm22.84 24.522h-7.59v1h7.59v-1Zm-8.458.498a1 1 0 0 0 .867.502v-1l-.867.498ZM13.823 7.501a1 1 0 0 0 .005.989l.867-.498-.872-.49Zm22.845 25.511v1a1 1 0 0 0 .872-1.49l-.872.49ZM19.51.497a1 1 0 0 0-1.742 0l.871.491.871-.49Z" fill="url(#g)" mask="url(#h)"/><path d="M60.683 8.102a1.045 1.045 0 0 1-.018.118.612.612 0 0 1-.022.069L53.69 28.46c-.067.194-.1.29-.161.363a.5.5 0 0 1-.2.142c-.087.034-.19.034-.395.034h-2.61c-.387 0-.582 0-.706-.082a.5.5 0 0 1-.215-.31c-.032-.145.036-.326.173-.69l8.43-22.4c.071-.187.106-.28.167-.349a.5.5 0 0 1 .197-.136C58.456 5 58.556 5 58.756 5h1.337c.305 0 .457 0 .569.061a.5.5 0 0 1 .22.241c.05.117.036.269.008.572l-.207 2.228ZM67.245 29c-.206 0-.308 0-.396-.034a.5.5 0 0 1-.2-.142c-.06-.072-.094-.169-.16-.363L59.487 8.198l-.892-2.083c-.159-.373-.238-.559-.21-.709a.5.5 0 0 1 .212-.32c.127-.086.33-.086.734-.086h2.075c.2 0 .3 0 .385.033a.5.5 0 0 1 .197.136c.06.069.096.162.167.348l8.461 22.4c.137.364.206.546.174.691a.5.5 0 0 1-.214.31c-.125.082-.32.082-.708.082h-2.624Zm-1.717-8.901c.28 0 .42 0 .527.054a.5.5 0 0 1 .219.219c.054.107.054.247.054.527v1.68c0 .28 0 .42-.054.527a.5.5 0 0 1-.219.219c-.107.054-.247.054-.527.054H54.073c-.28 0-.42 0-.527-.054a.5.5 0 0 1-.218-.219c-.055-.107-.055-.247-.055-.527V20.9c0-.28 0-.42.055-.527a.5.5 0 0 1 .218-.219c.107-.054.247-.054.527-.054h11.455Zm16.361 3.511L86.515 5.6c.055-.215.082-.323.143-.402a.5.5 0 0 1 .206-.16C86.957 5 87.067 5 87.289 5h1.887c.358 0 .537 0 .658.074a.5.5 0 0 1 .218.287c.039.136-.009.309-.105.654l-1.053 3.782-4.952 18.609c-.056.213-.084.319-.145.398a.5.5 0 0 1-.205.158C83.5 29 83.39 29 83.169 29h-1.94c-.373 0-.56 0-.682-.078a.5.5 0 0 1-.217-.298c-.036-.141.022-.318.138-.673l1.42-4.341ZM75.62 5c.21 0 .314 0 .403.035a.5.5 0 0 1 .2.146c.062.074.094.173.158.372l5.773 17.813a.522.522 0 0 1 .031.121c.003.019.004.038.007.075l.287 4.588c.018.296.027.444-.025.557a.5.5 0 0 1-.22.234c-.11.059-.258.059-.554.059h-1.333c-.21 0-.315 0-.404-.035a.5.5 0 0 1-.202-.148c-.06-.074-.093-.174-.156-.374l-7.154-22.4c-.113-.352-.17-.529-.133-.67a.5.5 0 0 1 .217-.296C72.637 5 72.823 5 73.193 5h2.427Zm18.972 18.489a.979.979 0 0 1 .011-.095l.014-.056L99.32 5.595c.056-.213.085-.32.145-.399a.5.5 0 0 1 .206-.158c.092-.038.202-.038.422-.038h2.455c.357 0 .536 0 .656.074a.496.496 0 0 1 .218.286c.04.136-.007.308-.102.652l-6.17 22.4c-.058.21-.086.316-.147.394a.5.5 0 0 1-.205.156c-.091.038-.2.038-.419.038h-1.303c-.298 0-.447 0-.558-.06a.5.5 0 0 1-.22-.234c-.05-.115-.04-.263-.02-.56l.315-4.657ZM89.525 5c.222 0 .334 0 .426.039a.5.5 0 0 1 .207.16c.06.08.087.189.142.404l4.578 18.056 1.404 4.292c.116.355.174.532.138.673a.5.5 0 0 1-.216.298c-.123.078-.31.078-.682.078h-1.939c-.22 0-.331 0-.424-.038a.5.5 0 0 1-.205-.16c-.06-.079-.089-.186-.145-.4L87.94 9.798l-1.041-3.785c-.095-.344-.142-.516-.102-.652a.5.5 0 0 1 .217-.286c.121-.074.3-.074.656-.074h1.856Zm30.992 20.72c.28 0 .42 0 .527.054a.502.502 0 0 1 .219.219c.054.107.054.247.054.527v1.68c0 .28 0 .42-.054.527a.502.502 0 0 1-.219.218c-.107.055-.247.055-.527.055h-12.196c-.28 0-.42 0-.527-.055a.502.502 0 0 1-.219-.218c-.054-.107-.054-.247-.054-.527v-1.68c0-.28 0-.42.054-.527a.502.502 0 0 1 .219-.219c.107-.054.247-.054.527-.054h12.196ZM108.946 5c.28 0 .42 0 .527.054a.5.5 0 0 1 .218.219c.055.107.055.247.055.527v22.4c0 .28 0 .42-.055.527a.5.5 0 0 1-.218.218c-.107.055-.247.055-.527.055h-2.537c-.28 0-.42 0-.527-.055a.496.496 0 0 1-.219-.218c-.054-.107-.054-.247-.054-.527V5.8c0-.28 0-.42.054-.527a.497.497 0 0 1 .219-.218c.107-.055.247-.055.527-.055h2.537Zm6.742 10.022c.28 0 .42 0 .527.054a.5.5 0 0 1 .218.219c.055.107.055.247.055.527v1.63c0 .28 0 .42-.055.528a.5.5 0 0 1-.218.218c-.107.055-.247.055-.527.055h-6.312c-.28 0-.42 0-.527-.055a.502.502 0 0 1-.219-.218c-.054-.107-.054-.247-.054-.527v-1.631c0-.28 0-.42.054-.527a.502.502 0 0 1 .219-.219c.107-.054.247-.054.527-.054h6.312ZM120.435 5c.28 0 .42 0 .527.054a.494.494 0 0 1 .218.219c.055.107.055.247.055.527v1.697c0 .28 0 .42-.055.527a.495.495 0 0 1-.218.218c-.107.055-.247.055-.527.055h-12.114c-.28 0-.42 0-.527-.055a.502.502 0 0 1-.219-.218c-.054-.107-.054-.247-.054-.527V5.8c0-.28 0-.42.054-.527a.502.502 0 0 1 .219-.218c.107-.055.247-.055.527-.055h12.114Zm13.261 13.154h-5.324c-.277 0-.416 0-.522-.054a.5.5 0 0 1-.218-.216c-.055-.105-.057-.244-.06-.521l-.015-1.417c-.003-.283-.005-.424.049-.532a.506.506 0 0 1 .219-.221c.108-.056.249-.056.532-.056h4.532c.901 0 1.665-.132 2.291-.395.637-.275 1.121-.665 1.451-1.17.329-.517.494-1.138.494-1.863 0-.802-.154-1.456-.461-1.962-.308-.505-.781-.873-1.418-1.104-.626-.23-1.429-.346-2.407-.346h-3.205c-.28 0-.42 0-.527.054a.502.502 0 0 0-.219.219c-.054.107-.054.247-.054.527V28.2c0 .28 0 .42-.055.527a.5.5 0 0 1-.218.218c-.107.055-.247.055-.527.055h-2.538c-.28 0-.42 0-.527-.055a.5.5 0 0 1-.218-.218c-.055-.107-.055-.247-.055-.527V5.8c0-.28 0-.42.055-.527a.5.5 0 0 1 .218-.218c.107-.055.247-.055.527-.055h7.343c1.319 0 2.495.126 3.528.38 1.044.252 1.928.647 2.654 1.186a5.004 5.004 0 0 1 1.664 2.01c.385.814.577 1.781.577 2.902 0 .989-.236 1.896-.708 2.72-.473.813-1.171 1.478-2.094 1.994-.868.486-1.934.787-3.2.903-.096.01-.144.014-.186.025a.497.497 0 0 0-.107.042c-.038.02-.073.049-.145.105l-1.126.887ZM133.515 29h-5.862c-.451 0-.677 0-.808-.095a.496.496 0 0 1-.204-.35c-.018-.161.094-.357.316-.75l.955-1.68c.083-.148.125-.221.184-.275a.498.498 0 0 1 .181-.105c.076-.025.161-.025.33-.025h4.908c.934 0 1.714-.154 2.341-.462.626-.318 1.093-.752 1.401-1.302.319-.56.478-1.214.478-1.962 0-.78-.137-1.456-.412-2.027a2.842 2.842 0 0 0-1.302-1.335c-.594-.319-1.368-.478-2.325-.478h-3.839c-.283 0-.424 0-.532-.055a.506.506 0 0 1-.219-.222c-.054-.108-.052-.25-.049-.532l.015-1.416c.003-.278.005-.416.06-.522a.5.5 0 0 1 .218-.216c.106-.054.245-.054.522-.054h4.882c.138 0 .207 0 .272.018.056.015.11.04.158.074.054.039.098.092.187.199l.469.569c.084.101.127.152.176.189a.472.472 0 0 0 .143.073c.058.02.129.024.271.034 1.157.082 2.12.367 2.887.855.858.539 1.495 1.237 1.912 2.094.418.857.627 1.78.627 2.769 0 1.527-.335 2.808-1.006 3.84-.659 1.034-1.61 1.82-2.851 2.358-1.242.527-2.737.791-4.484.791Z" fill="#000"/><path d="M60.683 8.102a1.045 1.045 0 0 1-.018.118.612.612 0 0 1-.022.069L53.69 28.46c-.067.194-.1.29-.161.363a.5.5 0 0 1-.2.142c-.087.034-.19.034-.395.034h-2.61c-.387 0-.582 0-.706-.082a.5.5 0 0 1-.215-.31c-.032-.145.036-.326.173-.69l8.43-22.4c.071-.187.106-.28.167-.349a.5.5 0 0 1 .197-.136C58.456 5 58.556 5 58.756 5h1.337c.305 0 .457 0 .569.061a.5.5 0 0 1 .22.241c.05.117.036.269.008.572l-.207 2.228ZM67.245 29c-.206 0-.308 0-.396-.034a.5.5 0 0 1-.2-.142c-.06-.072-.094-.169-.16-.363L59.487 8.198l-.892-2.083c-.159-.373-.238-.559-.21-.709a.5.5 0 0 1 .212-.32c.127-.086.33-.086.734-.086h2.075c.2 0 .3 0 .385.033a.5.5 0 0 1 .197.136c.06.069.096.162.167.348l8.461 22.4c.137.364.206.546.174.691a.5.5 0 0 1-.214.31c-.125.082-.32.082-.708.082h-2.624Zm-1.717-8.901c.28 0 .42 0 .527.054a.5.5 0 0 1 .219.219c.054.107.054.247.054.527v1.68c0 .28 0 .42-.054.527a.5.5 0 0 1-.219.219c-.107.054-.247.054-.527.054H54.073c-.28 0-.42 0-.527-.054a.5.5 0 0 1-.218-.219c-.055-.107-.055-.247-.055-.527V20.9c0-.28 0-.42.055-.527a.5.5 0 0 1 .218-.219c.107-.054.247-.054.527-.054h11.455Zm.191-11.901 7.65 20.284c.07.187.106.28.167.35a.49.49 0 0 0 .197.135c.086.033.185.033.385.033h2.64c.39 0 .584 0 .709-.082a.5.5 0 0 0 .214-.31c.032-.145-.036-.327-.174-.69l-8.461-22.4c-.07-.187-.106-.28-.167-.35a.5.5 0 0 0-.197-.135C68.596 5 68.497 5 68.297 5H65.77c-.374 0-.56 0-.683.078a.5.5 0 0 0-.217.3c-.035.14.023.318.14.673l.709 2.147Z" fill="#000"/><defs><linearGradient id="a" x1="25.163" y1="30.028" x2="10.771" y2="15.07" gradientUnits="userSpaceOnUse"><stop offset=".313"/><stop offset="1" stop-color="#656565"/></linearGradient><linearGradient id="b" x1="10.985" y1="1.01" x2="10.985" y2="33.339" gradientUnits="userSpaceOnUse"><stop offset=".615"/><stop offset="1" stop-color="#656565"/></linearGradient><linearGradient id="c" x1="14.244" y1="20.955" x2="26.51" y2="15.073" gradientUnits="userSpaceOnUse"><stop/><stop offset="1" stop-color="#565656"/></linearGradient><radialGradient id="d" cx="0" cy="0" r="1" gradientUnits="userSpaceOnUse" gradientTransform="matrix(5.9359 9.16113 -14.55461 9.43058 17.164 23.706)"><stop stop-color="#fff"/><stop offset="1" stop-opacity="0"/></radialGradient><linearGradient id="f" x1="25.682" y1=".488" x2="25.682" y2="33.512" gradientUnits="userSpaceOnUse"><stop offset=".407"/><stop offset="1" stop-color="#4C4C4C"/></linearGradient><radialGradient id="g" cx="0" cy="0" r="1" gradientUnits="userSpaceOnUse" gradientTransform="matrix(2.58094 -23.99982 16.69633 1.79552 19.228 29.383)"><stop stop-color="#fff"/><stop offset="1" stop-color="#fff" stop-opacity="0"/></radialGradient></defs></svg>